<svg width="18" height="12" viewBox="0 0 18 12" fill="none" xmlns="http://www.w3.org/2000/svg">
<g clip-path="url(#clip0)">
<path d="M18 0H0V12.0001H18V0Z" fill="#F0F0F0"/>
<path d="M10.125 -0.00012207H7.875V4.87485H0V7.12485H7.875V11.9998H10.125V7.12485H18V4.87485H10.125V-0.00012207Z" fill="#D80027"/>
<path d="M13.8441 8.08679L18.0001 10.3957V8.08679H13.8441Z" fill="#00247C"/>
<path d="M10.9565 8.08679L18 11.9998V10.8933L12.9483 8.08679H10.9565Z" fill="#00247C"/>
<path d="M16.1239 11.9998L10.9565 9.12878V11.9998H16.1239Z" fill="#00247C"/>
<path d="M10.9565 8.08679L18 11.9998V10.8933L12.9483 8.08679H10.9565Z" fill="#F0F0F0"/>
<path d="M10.9565 8.08679L18 11.9998V10.8933L12.9483 8.08679H10.9565Z" fill="#D80027"/>
<path d="M3.17605 8.08679L0 9.85128V8.08679H3.17605Z" fill="#00247C"/>
<path d="M7.0435 8.58435V11.9998H0.896179L7.0435 8.58435Z" fill="#00247C"/>
<path d="M5.05171 8.08679L0 10.8933V11.9998L7.04348 8.08679H5.05171Z" fill="#D80027"/>
<path d="M4.156 3.9128L0 1.60388V3.9128H4.156Z" fill="#00247C"/>
<path d="M7.04348 3.91291L0 -0.00012207V1.10639L5.05171 3.91291H7.04348Z" fill="#00247C"/>
<path d="M1.87616 -0.00012207L7.0435 2.87088V-0.00012207H1.87616Z" fill="#00247C"/>
<path d="M7.04348 3.91291L0 -0.00012207V1.10639L5.05171 3.91291H7.04348Z" fill="#F0F0F0"/>
<path d="M7.04348 3.91291L0 -0.00012207V1.10639L5.05171 3.91291H7.04348Z" fill="#D80027"/>
<path d="M14.824 3.91293L18.0001 2.14844V3.91293H14.824Z" fill="#00247C"/>
<path d="M10.9565 3.41534V-0.00012207H17.1039L10.9565 3.41534Z" fill="#00247C"/>
<path d="M12.9483 3.91291L18 1.10639V-0.00012207L10.9565 3.91291H12.9483Z" fill="#D80027"/>
</g>
<defs>
<clipPath id="clip0">
<rect width="18" height="12" fill="white"/>
</clipPath>
</defs>
</svg>
